<svg version="1.1" viewBox="0.0 0.0 638.8346456692914 530.5196850393701" fill="none" stroke="none" stroke-linecap="square" stroke-miterlimit="10" xmlns:xlink="http://www.w3.org/1999/xlink" xmlns="http://www.w3.org/2000/svg"><clipPath id="p.0"><path d="m0 0l638.83466 0l0 530.5197l-638.83466 0l0 -530.5197z" clip-rule="nonzero"/></clipPath><g clip-path="url(#p.0)"><path fill="#000000" fill-opacity="0.0" d="m0 0l638.83466 0l0 530.5197l-638.83466 0z" fill-rule="evenodd"/><path fill="#00ff00" d="m8.3282 266.36368l0 0c0 -141.48212 139.32243 -256.17603 311.1854 -256.17603l0 0c171.86295 0 311.1854 114.69391 311.1854 256.17603l0 0c0 141.48209 -139.32245 256.176 -311.1854 256.176l0 0c-171.86295 0 -311.1854 -114.69391 -311.1854 -256.176z" fill-rule="evenodd"/><path stroke="#000000" stroke-width="12.0" stroke-linejoin="round" stroke-linecap="butt" d="m8.3282 266.36368l0 0c0 -141.48212 139.32243 -256.17603 311.1854 -256.17603l0 0c171.86295 0 311.1854 114.69391 311.1854 256.17603l0 0c0 141.48209 -139.32245 256.176 -311.1854 256.176l0 0c-171.86295 0 -311.1854 -114.69391 -311.1854 -256.176z" fill-rule="evenodd"/><path fill="#000000" fill-opacity="0.0" d="m211.50851 -66.52887l216.01013 0l0 665.78864l-216.01013 0z" fill-rule="evenodd"/><path fill="#ffffff" d="m285.12073 323.268l-29.343765 -235.73438l127.468765 0l-30.40625 235.73438l-67.71875 0zm-18.671875 131.20312l0 -98.671875l105.59375 0l0 98.671875l-105.59375 0z" fill-rule="nonzero"/></g></svg>